<svg width="42" height="42" viewBox="0 0 42 42" fill="none" xmlns="http://www.w3.org/2000/svg">
<g clip-path="url(#clip0_1_13)">
<path d="M34.5966 20.3793C33.3183 18.8865 32.7374 17.5929 32.7374 15.395V14.6477C32.7374 11.7837 32.0782 9.93837 30.6451 8.09303C28.4363 5.22723 24.7177 3.5 21.0774 3.5H20.9227C17.3589 3.5 13.7569 5.14792 11.5098 7.8974C9.99833 9.77974 9.26263 11.7044 9.26263 14.6477V15.395C9.26263 17.5929 8.71997 18.8865 7.40336 20.3793C6.43459 21.4791 6.125 22.8926 6.125 24.4225C6.125 25.9541 6.62765 27.4046 7.63642 28.5838C8.95304 29.9973 10.8123 30.8996 12.7116 31.0565C15.4613 31.3701 18.211 31.4883 21.0009 31.4883C23.789 31.4883 26.5388 31.2909 29.2901 31.0565C31.1876 30.8996 33.047 29.9973 34.3635 28.5838C35.3707 27.4046 35.875 25.9541 35.875 24.4225C35.875 22.8926 35.5654 21.4791 34.5966 20.3793Z" fill="#99BAED"/>
<path opacity="0.4" d="M24.5152 33.6497C23.6403 33.4628 18.3095 33.4628 17.4346 33.6497C16.6868 33.8224 15.878 34.2242 15.878 35.1055C15.9215 35.9462 16.4137 36.6882 17.0955 37.1588L17.0937 37.1605C17.9756 37.8479 19.0104 38.2849 20.094 38.4419C20.6715 38.5212 21.2593 38.5177 21.8576 38.4419C22.9395 38.2849 23.9742 37.8479 24.8561 37.1605L24.8543 37.1588C25.5361 36.6882 26.0284 35.9462 26.0718 35.1055C26.0718 34.2242 25.2631 33.8224 24.5152 33.6497Z" fill="#AEAEAE"/>
<path d="M37.784 7.43065C37.852 11.8232 34.3462 15.4393 29.9537 15.5073C25.5611 15.5753 21.945 12.0696 21.877 7.677C21.809 3.28441 25.3147 -0.331626 29.7073 -0.399653C34.0999 -0.46768 37.7159 3.03807 37.784 7.43065Z" fill="#FF5050" stroke="white"/>
<path d="M29.3749 5.24208C29.8015 5.23548 30.1693 5.30646 30.4783 5.45502C30.7873 5.60359 31.0239 5.80995 31.188 6.07411C31.3588 6.33816 31.4468 6.63684 31.4519 6.97013C31.4567 7.27676 31.4109 7.55083 31.3146 7.79235C31.2183 8.02721 31.0718 8.2595 30.8754 8.48924C30.6788 8.71231 30.4193 8.96302 30.0969 9.24138L29.1594 10.056L31.689 10.0068L31.8243 10.9948L27.4048 11.0633L27.3913 10.1934L29.3845 8.44232C29.6015 8.2456 29.782 8.06612 29.9262 7.90387C30.077 7.74151 30.188 7.58977 30.2592 7.44866C30.3302 7.30087 30.3648 7.16699 30.363 7.047C30.3591 6.7937 30.2561 6.60527 30.0542 6.48171C29.8522 6.35149 29.5845 6.28896 29.2512 6.29413C29.0512 6.29722 28.8517 6.33032 28.6527 6.39341C28.4602 6.44973 28.2812 6.51917 28.1158 6.60174C27.9504 6.68432 27.8082 6.75986 27.6893 6.82838L27.4532 5.79191C27.6381 5.6757 27.893 5.5584 28.2178 5.44002C28.5426 5.31498 28.9283 5.249 29.3749 5.24208Z" fill="white"/>
</g>
<defs>
<clipPath id="clip0_1_13">
<rect width="42" height="42" fill="white"/>
</clipPath>
</defs>
</svg>
